<?xml version="1.0" encoding="UTF-8" standalone="no"?><svg xmlns="http://www.w3.org/2000/svg" xmlns:xlink="http://www.w3.org/1999/xlink" contentScriptType="application/ecmascript" contentStyleType="text/css" height="776px" preserveAspectRatio="none" style="width:1128px;height:776px;" version="1.1" viewBox="0 0 1128 776" width="1128px" zoomAndPan="magnify"><defs><filter height="300%" id="f6pv1u7wisdeu" width="300%" x="-1" y="-1"><feGaussianBlur result="blurOut" stdDeviation="2.0"/><feColorMatrix in="blurOut" result="blurOut2" type="matrix" values="0 0 0 0 0 0 0 0 0 0 0 0 0 0 0 0 0 0 .4 0"/><feOffset dx="4.0" dy="4.0" in="blurOut2" result="blurOut3"/><feBlend in="SourceGraphic" in2="blurOut3" mode="normal"/></filter></defs><g><rect fill="#FFFFFF" filter="url(#f6pv1u7wisdeu)" height="410.8594" style="stroke: #000000; stroke-width: 2.0;" width="632.5" x="477" y="123.5625"/><rect fill="#FFFFFF" filter="url(#f6pv1u7wisdeu)" height="59.2656" style="stroke: #000000; stroke-width: 2.0;" width="214" x="740.5" y="205.9609"/><rect fill="#FFFFFF" filter="url(#f6pv1u7wisdeu)" height="59.2656" style="stroke: #000000; stroke-width: 2.0;" width="214.5" x="885" y="352.625"/><rect fill="#FFFFFF" filter="url(#f6pv1u7wisdeu)" height="59.2656" style="stroke: #000000; stroke-width: 2.0;" width="166" x="227" y="607.8203"/><line style="stroke: #A80036; stroke-width: 1.0; stroke-dasharray: 5.0,5.0;" x1="77" x2="77" y1="38.2969" y2="728.3516"/><line style="stroke: #A80036; stroke-width: 1.0; stroke-dasharray: 5.0,5.0;" x1="272" x2="272" y1="38.2969" y2="728.3516"/><line style="stroke: #A80036; stroke-width: 1.0; stroke-dasharray: 5.0,5.0;" x1="523" x2="523" y1="38.2969" y2="728.3516"/><line style="stroke: #A80036; stroke-width: 1.0; stroke-dasharray: 5.0,5.0;" x1="637" x2="637" y1="38.2969" y2="728.3516"/><line style="stroke: #A80036; stroke-width: 1.0; stroke-dasharray: 5.0,5.0;" x1="804.5" x2="804.5" y1="38.2969" y2="728.3516"/><line style="stroke: #A80036; stroke-width: 1.0; stroke-dasharray: 5.0,5.0;" x1="949" x2="949" y1="38.2969" y2="728.3516"/><rect fill="#FEFECE" filter="url(#f6pv1u7wisdeu)" height="30.2969" style="stroke: #A80036; stroke-width: 1.5;" width="61" x="45" y="3"/><text fill="#000000" font-family="sans-serif" font-size="14" lengthAdjust="spacingAndGlyphs" textLength="47" x="52" y="22.9951">Discv5</text><rect fill="#FEFECE" filter="url(#f6pv1u7wisdeu)" height="30.2969" style="stroke: #A80036; stroke-width: 1.5;" width="61" x="45" y="727.3516"/><text fill="#000000" font-family="sans-serif" font-size="14" lengthAdjust="spacingAndGlyphs" textLength="47" x="52" y="747.3467">Discv5</text><rect fill="#FEFECE" filter="url(#f6pv1u7wisdeu)" height="30.2969" style="stroke: #A80036; stroke-width: 1.5;" width="67" x="237" y="3"/><text fill="#000000" font-family="sans-serif" font-size="14" lengthAdjust="spacingAndGlyphs" textLength="53" x="244" y="22.9951">Service</text><rect fill="#FEFECE" filter="url(#f6pv1u7wisdeu)" height="30.2969" style="stroke: #A80036; stroke-width: 1.5;" width="67" x="237" y="727.3516"/><text fill="#000000" font-family="sans-serif" font-size="14" lengthAdjust="spacingAndGlyphs" textLength="53" x="244" y="747.3467">Service</text><rect fill="#FEFECE" filter="url(#f6pv1u7wisdeu)" height="30.2969" style="stroke: #A80036; stroke-width: 1.5;" width="69" x="487" y="3"/><text fill="#000000" font-family="sans-serif" font-size="14" lengthAdjust="spacingAndGlyphs" textLength="55" x="494" y="22.9951">Handler</text><rect fill="#FEFECE" filter="url(#f6pv1u7wisdeu)" height="30.2969" style="stroke: #A80036; stroke-width: 1.5;" width="69" x="487" y="727.3516"/><text fill="#000000" font-family="sans-serif" font-size="14" lengthAdjust="spacingAndGlyphs" textLength="55" x="494" y="747.3467">Handler</text><rect fill="#FEFECE" filter="url(#f6pv1u7wisdeu)" height="30.2969" style="stroke: #A80036; stroke-width: 1.5;" width="65" x="603" y="3"/><text fill="#000000" font-family="sans-serif" font-size="14" lengthAdjust="spacingAndGlyphs" textLength="51" x="610" y="22.9951">Socket</text><rect fill="#FEFECE" filter="url(#f6pv1u7wisdeu)" height="30.2969" style="stroke: #A80036; stroke-width: 1.5;" width="65" x="603" y="727.3516"/><text fill="#000000" font-family="sans-serif" font-size="14" lengthAdjust="spacingAndGlyphs" textLength="51" x="610" y="747.3467">Socket</text><rect fill="#FEFECE" filter="url(#f6pv1u7wisdeu)" height="30.2969" style="stroke: #A80036; stroke-width: 1.5;" width="104" x="750.5" y="3"/><text fill="#000000" font-family="sans-serif" font-size="14" lengthAdjust="spacingAndGlyphs" textLength="90" x="757.5" y="22.9951">RecvHandler</text><rect fill="#FEFECE" filter="url(#f6pv1u7wisdeu)" height="30.2969" style="stroke: #A80036; stroke-width: 1.5;" width="104" x="750.5" y="727.3516"/><text fill="#000000" font-family="sans-serif" font-size="14" lengthAdjust="spacingAndGlyphs" textLength="90" x="757.5" y="747.3467">RecvHandler</text><rect fill="#FEFECE" filter="url(#f6pv1u7wisdeu)" height="30.2969" style="stroke: #A80036; stroke-width: 1.5;" width="105" x="895" y="3"/><text fill="#000000" font-family="sans-serif" font-size="14" lengthAdjust="spacingAndGlyphs" textLength="91" x="902" y="22.9951">SendHandler</text><rect fill="#FEFECE" filter="url(#f6pv1u7wisdeu)" height="30.2969" style="stroke: #A80036; stroke-width: 1.5;" width="105" x="895" y="727.3516"/><text fill="#000000" font-family="sans-serif" font-size="14" lengthAdjust="spacingAndGlyphs" textLength="91" x="902" y="747.3467">SendHandler</text><polygon fill="#A80036" points="260.5,70.4297,270.5,74.4297,260.5,78.4297,264.5,74.4297" style="stroke: #A80036; stroke-width: 1.0;"/><line style="stroke: #A80036; stroke-width: 1.0;" x1="77.5" x2="266.5" y1="74.4297" y2="74.4297"/><text fill="#000000" font-family="sans-serif" font-size="13" lengthAdjust="spacingAndGlyphs" textLength="109" x="84.5" y="69.3638">Service::spawn()</text><path d="M8,53.2969 L8,78.2969 L69,78.2969 L69,63.2969 L59,53.2969 L8,53.2969 " fill="#FBFB77" filter="url(#f6pv1u7wisdeu)" style="stroke: #A80036; stroke-width: 1.0;"/><path d="M59,53.2969 L59,63.2969 L69,63.2969 L59,53.2969 " fill="#FBFB77" style="stroke: #A80036; stroke-width: 1.0;"/><text fill="#000000" font-family="sans-serif" font-size="13" lengthAdjust="spacingAndGlyphs" textLength="40" x="14" y="70.3638">start()</text><polygon fill="#A80036" points="511.5,104.5625,521.5,108.5625,511.5,112.5625,515.5,108.5625" style="stroke: #A80036; stroke-width: 1.0;"/><line style="stroke: #A80036; stroke-width: 1.0;" x1="272.5" x2="517.5" y1="108.5625" y2="108.5625"/><text fill="#000000" font-family="sans-serif" font-size="13" lengthAdjust="spacingAndGlyphs" textLength="111" x="279.5" y="103.4966">Handler::spawn()</text><path d="M477,123.5625 L638,123.5625 L638,130.5625 L628,140.5625 L477,140.5625 L477,123.5625 " fill="#EEEEEE" style="stroke: #000000; stroke-width: 1.0;"/><rect fill="none" height="410.8594" style="stroke: #000000; stroke-width: 2.0;" width="632.5" x="477" y="123.5625"/><text fill="#000000" font-family="sans-serif" font-size="13" font-weight="bold" lengthAdjust="spacingAndGlyphs" textLength="116" x="492" y="136.6294">Spawn a future</text><polygon fill="#A80036" points="625.5,157.8281,635.5,161.8281,625.5,165.8281,629.5,161.8281" style="stroke: #A80036; stroke-width: 1.0;"/><line style="stroke: #A80036; stroke-width: 1.0;" x1="523.5" x2="631.5" y1="161.8281" y2="161.8281"/><text fill="#000000" font-family="sans-serif" font-size="13" lengthAdjust="spacingAndGlyphs" textLength="90" x="530.5" y="156.7622">Socket::new()</text><polygon fill="#A80036" points="792.5,186.9609,802.5,190.9609,792.5,194.9609,796.5,190.9609" style="stroke: #A80036; stroke-width: 1.0;"/><line style="stroke: #A80036; stroke-width: 1.0;" x1="637.5" x2="798.5" y1="190.9609" y2="190.9609"/><text fill="#000000" font-family="sans-serif" font-size="13" lengthAdjust="spacingAndGlyphs" textLength="143" x="644.5" y="185.895">RecvHandler::spawn()</text><path d="M740.5,205.9609 L901.5,205.9609 L901.5,212.9609 L891.5,222.9609 L740.5,222.9609 L740.5,205.9609 " fill="#EEEEEE" style="stroke: #000000; stroke-width: 1.0;"/><rect fill="none" height="59.2656" style="stroke: #000000; stroke-width: 2.0;" width="214" x="740.5" y="205.9609"/><text fill="#000000" font-family="sans-serif" font-size="13" font-weight="bold" lengthAdjust="spacingAndGlyphs" textLength="116" x="755.5" y="219.0278">Spawn a future</text><line style="stroke: #A80036; stroke-width: 1.0;" x1="804.5" x2="846.5" y1="244.2266" y2="244.2266"/><line style="stroke: #A80036; stroke-width: 1.0;" x1="846.5" x2="846.5" y1="244.2266" y2="257.2266"/><line style="stroke: #A80036; stroke-width: 1.0;" x1="805.5" x2="846.5" y1="257.2266" y2="257.2266"/><polygon fill="#A80036" points="815.5,253.2266,805.5,257.2266,815.5,261.2266,811.5,257.2266" style="stroke: #A80036; stroke-width: 1.0;"/><text fill="#000000" font-family="sans-serif" font-size="13" lengthAdjust="spacingAndGlyphs" textLength="131" x="811.5" y="239.1606">RecvHandler::start()</text><polygon fill="#A80036" points="648.5,304.4922,638.5,308.4922,648.5,312.4922,644.5,308.4922" style="stroke: #A80036; stroke-width: 1.0;"/><line style="stroke: #A80036; stroke-width: 1.0;" x1="642.5" x2="803.5" y1="308.4922" y2="308.4922"/><ellipse cx="660" cy="283.8594" fill="#000000" rx="2.5" ry="2.5" style="stroke: #000000; stroke-width: 0.0;"/><text fill="#000000" font-family="sans-serif" font-size="13" lengthAdjust="spacingAndGlyphs" textLength="94" x="667.5" y="288.2935">recv(Receiver)</text><ellipse cx="660" cy="298.9922" fill="#000000" rx="2.5" ry="2.5" style="stroke: #000000; stroke-width: 0.0;"/><text fill="#000000" font-family="sans-serif" font-size="13" lengthAdjust="spacingAndGlyphs" textLength="114" x="667.5" y="303.4263">recv_exit(Sender)</text><polygon fill="#A80036" points="937.5,333.625,947.5,337.625,937.5,341.625,941.5,337.625" style="stroke: #A80036; stroke-width: 1.0;"/><line style="stroke: #A80036; stroke-width: 1.0;" x1="637.5" x2="943.5" y1="337.625" y2="337.625"/><text fill="#000000" font-family="sans-serif" font-size="13" lengthAdjust="spacingAndGlyphs" textLength="143" x="644.5" y="332.5591">SendHandler::spawn()</text><path d="M885,352.625 L1046,352.625 L1046,359.625 L1036,369.625 L885,369.625 L885,352.625 " fill="#EEEEEE" style="stroke: #000000; stroke-width: 1.0;"/><rect fill="none" height="59.2656" style="stroke: #000000; stroke-width: 2.0;" width="214.5" x="885" y="352.625"/><text fill="#000000" font-family="sans-serif" font-size="13" font-weight="bold" lengthAdjust="spacingAndGlyphs" textLength="116" x="900" y="365.6919">Spawn a future</text><line style="stroke: #A80036; stroke-width: 1.0;" x1="949.5" x2="991.5" y1="390.8906" y2="390.8906"/><line style="stroke: #A80036; stroke-width: 1.0;" x1="991.5" x2="991.5" y1="390.8906" y2="403.8906"/><line style="stroke: #A80036; stroke-width: 1.0;" x1="950.5" x2="991.5" y1="403.8906" y2="403.8906"/><polygon fill="#A80036" points="960.5,399.8906,950.5,403.8906,960.5,407.8906,956.5,403.8906" style="stroke: #A80036; stroke-width: 1.0;"/><text fill="#000000" font-family="sans-serif" font-size="13" lengthAdjust="spacingAndGlyphs" textLength="131" x="956.5" y="385.8247">SendHandler::start()</text><polygon fill="#A80036" points="648.5,451.1563,638.5,455.1563,648.5,459.1563,644.5,455.1563" style="stroke: #A80036; stroke-width: 1.0;"/><line style="stroke: #A80036; stroke-width: 1.0;" x1="642.5" x2="948.5" y1="455.1563" y2="455.1563"/><ellipse cx="660" cy="430.5234" fill="#000000" rx="2.5" ry="2.5" style="stroke: #000000; stroke-width: 0.0;"/><text fill="#000000" font-family="sans-serif" font-size="13" lengthAdjust="spacingAndGlyphs" textLength="86" x="667.5" y="434.9575">send(Sender)</text><ellipse cx="660" cy="445.6563" fill="#000000" rx="2.5" ry="2.5" style="stroke: #000000; stroke-width: 0.0;"/><text fill="#000000" font-family="sans-serif" font-size="13" lengthAdjust="spacingAndGlyphs" textLength="130" x="667.5" y="450.0903">sender_exit(Sender)</text><polygon fill="#A80036" points="534.5,480.2891,524.5,484.2891,534.5,488.2891,530.5,484.2891" style="stroke: #A80036; stroke-width: 1.0;"/><line style="stroke: #A80036; stroke-width: 1.0;" x1="528.5" x2="636.5" y1="484.2891" y2="484.2891"/><text fill="#000000" font-family="sans-serif" font-size="13" lengthAdjust="spacingAndGlyphs" textLength="43" x="540.5" y="479.2231">Socket</text><line style="stroke: #A80036; stroke-width: 1.0;" x1="523.5" x2="565.5" y1="513.4219" y2="513.4219"/><line style="stroke: #A80036; stroke-width: 1.0;" x1="565.5" x2="565.5" y1="513.4219" y2="526.4219"/><line style="stroke: #A80036; stroke-width: 1.0;" x1="524.5" x2="565.5" y1="526.4219" y2="526.4219"/><polygon fill="#A80036" points="534.5,522.4219,524.5,526.4219,534.5,530.4219,530.5,526.4219" style="stroke: #A80036; stroke-width: 1.0;"/><text fill="#000000" font-family="sans-serif" font-size="13" lengthAdjust="spacingAndGlyphs" textLength="99" x="530.5" y="508.356">Handler::start()</text><polygon fill="#A80036" points="283.5,588.8203,273.5,592.8203,283.5,596.8203,279.5,592.8203" style="stroke: #A80036; stroke-width: 1.0;"/><line style="stroke: #A80036; stroke-width: 1.0;" x1="277.5" x2="522.5" y1="592.8203" y2="592.8203"/><ellipse cx="295" cy="553.0547" fill="#000000" rx="2.5" ry="2.5" style="stroke: #000000; stroke-width: 0.0;"/><text fill="#000000" font-family="sans-serif" font-size="13" lengthAdjust="spacingAndGlyphs" textLength="134" x="302.5" y="557.4888">handler_exit(Sender)</text><ellipse cx="295" cy="568.1875" fill="#000000" rx="2.5" ry="2.5" style="stroke: #000000; stroke-width: 0.0;"/><text fill="#000000" font-family="sans-serif" font-size="13" lengthAdjust="spacingAndGlyphs" textLength="214" x="302.5" y="572.6216">handler_send(UnboundedSender)</text><ellipse cx="295" cy="583.3203" fill="#000000" rx="2.5" ry="2.5" style="stroke: #000000; stroke-width: 0.0;"/><text fill="#000000" font-family="sans-serif" font-size="13" lengthAdjust="spacingAndGlyphs" textLength="149" x="302.5" y="587.7544">handler_recv(Receiver)</text><path d="M227,607.8203 L388,607.8203 L388,614.8203 L378,624.8203 L227,624.8203 L227,607.8203 " fill="#EEEEEE" style="stroke: #000000; stroke-width: 1.0;"/><rect fill="none" height="59.2656" style="stroke: #000000; stroke-width: 2.0;" width="166" x="227" y="607.8203"/><text fill="#000000" font-family="sans-serif" font-size="13" font-weight="bold" lengthAdjust="spacingAndGlyphs" textLength="116" x="242" y="620.8872">Spawn a future</text><line style="stroke: #A80036; stroke-width: 1.0;" x1="272.5" x2="314.5" y1="646.0859" y2="646.0859"/><line style="stroke: #A80036; stroke-width: 1.0;" x1="314.5" x2="314.5" y1="646.0859" y2="659.0859"/><line style="stroke: #A80036; stroke-width: 1.0;" x1="273.5" x2="314.5" y1="659.0859" y2="659.0859"/><polygon fill="#A80036" points="283.5,655.0859,273.5,659.0859,283.5,663.0859,279.5,659.0859" style="stroke: #A80036; stroke-width: 1.0;"/><text fill="#000000" font-family="sans-serif" font-size="13" lengthAdjust="spacingAndGlyphs" textLength="97" x="279.5" y="641.02">Service::start()</text><polygon fill="#A80036" points="88.5,706.3516,78.5,710.3516,88.5,714.3516,84.5,710.3516" style="stroke: #A80036; stroke-width: 1.0;"/><line style="stroke: #A80036; stroke-width: 1.0;" x1="82.5" x2="271.5" y1="710.3516" y2="710.3516"/><ellipse cx="100" cy="685.7188" fill="#000000" rx="2.5" ry="2.5" style="stroke: #000000; stroke-width: 0.0;"/><text fill="#000000" font-family="sans-serif" font-size="13" lengthAdjust="spacingAndGlyphs" textLength="132" x="107.5" y="690.1528">service_exit(Sender)</text><ellipse cx="100" cy="700.8516" fill="#000000" rx="2.5" ry="2.5" style="stroke: #000000; stroke-width: 0.0;"/><text fill="#000000" font-family="sans-serif" font-size="13" lengthAdjust="spacingAndGlyphs" textLength="158" x="107.5" y="705.2856">service_channel(Sender)</text><!--MD5=[d74ce4ade278967ebaf843a93d34dd0c]
@startuml
'Discv5
Discv5 -> Service : Service::spawn()
note left: start()

'Service
Service -> Handler : Handler::spawn()

group Spawn a future
	'Socket - - - - - - - - - - - - - - - - - - - - - - - - - - - - - - - - - - - - - - - - - - - - - - - - - - - - - - - - -
	Handler -> Socket : Socket::new()

	'RecvHandler - - - - - - - - - - - - - - - - - - - - - - - - - - - - - - - - - - - - - - - - - - - - - - - - - - - -
	Socket -> RecvHandler : RecvHandler::spawn()
	group Spawn a future
		RecvHandler -> RecvHandler : RecvHandler::start()
	end
	RecvHandler -> Socket : * recv(Receiver) \n* recv_exit(Sender)

	'SendHandler - - - - - - - - - - - - - - - - - - - - - - - - - - - - - - - - - - - - - - - - - - - - - - - - - - - -
	Socket -> SendHandler : SendHandler::spawn()
	group Spawn a future
		SendHandler -> SendHandler : SendHandler::start()
	end
	SendHandler -> Socket : * send(Sender) \n* sender_exit(Sender)

	Socket -> Handler : Socket

Handler -> Handler : Handler::start()
end

Handler -> Service : * handler_exit(Sender) \n* handler_send(UnboundedSender) \n* handler_recv(Receiver)

group Spawn a future
Service -> Service : Service::start()
end

Service -> Discv5 : * service_exit(Sender) \n* service_channel(Sender)
@enduml

@startuml
Discv5 -> Service : Service::spawn()
note left: start()

Service -> Handler : Handler::spawn()

group Spawn a future
	Handler -> Socket : Socket::new()

	Socket -> RecvHandler : RecvHandler::spawn()
	group Spawn a future
		RecvHandler -> RecvHandler : RecvHandler::start()
	end
	RecvHandler -> Socket : * recv(Receiver) \n* recv_exit(Sender)

	Socket -> SendHandler : SendHandler::spawn()
	group Spawn a future
		SendHandler -> SendHandler : SendHandler::start()
	end
	SendHandler -> Socket : * send(Sender) \n* sender_exit(Sender)

	Socket -> Handler : Socket

Handler -> Handler : Handler::start()
end

Handler -> Service : * handler_exit(Sender) \n* handler_send(UnboundedSender) \n* handler_recv(Receiver)

group Spawn a future
Service -> Service : Service::start()
end

Service -> Discv5 : * service_exit(Sender) \n* service_channel(Sender)
@enduml

PlantUML version 1.2020.18beta4(Unknown compile time)
(GPL source distribution)
Java Runtime: Java(TM) SE Runtime Environment
JVM: Java HotSpot(TM) 64-Bit Server VM
Default Encoding: UTF-8
Language: en
Country: US
--></g></svg>